<?xml version="1.0" encoding="utf-8"?>
<!-- Uploaded to: SVG Repo, www.svgrepo.com, Generator: SVG Repo Mixer Tools -->
<svg fill="#000000" width="800px" height="800px" viewBox="0 0 32 32" version="1.1" xmlns="http://www.w3.org/2000/svg">
<title>raspberrypi</title>
<path d="M27.651 9.722c0 0.73-0.592 1.322-1.322 1.322s-1.322-0.592-1.322-1.322c0-0.73 0.592-1.322 1.322-1.322v0c0 0 0 0 0 0 0.73 0 1.322 0.592 1.322 1.322 0 0 0 0 0 0v0zM24.743 9.722c0 0.876 0.71 1.586 1.586 1.586s1.586-0.71 1.586-1.586-0.71-1.586-1.586-1.586c0 0 0 0 0 0v0c-0 0-0 0-0 0-0.876 0-1.586 0.71-1.586 1.586 0 0 0 0 0 0v0zM26.035 9.143h0.409c0.167 0 0.257 0.072 0.257 0.235 0 0.171-0.090 0.243-0.257 0.243h-0.409zM25.662 10.55h0.373v-0.663h0.373c0.188 0 0.257 0.078 0.283 0.256 0.005 0.147 0.027 0.286 0.063 0.419l-0.003-0.013h0.373c-0.046-0.106-0.072-0.229-0.072-0.359 0-0.015 0-0.030 0.001-0.045l-0 0.002c-0.012-0.172-0.064-0.349-0.247-0.397v-0.005c0.159-0.061 0.27-0.213 0.27-0.391 0-0.012-0.001-0.025-0.002-0.037l0 0.002c0-0.001 0-0.002 0-0.002 0-0.257-0.209-0.466-0.466-0.466-0.011 0-0.022 0-0.032 0.001l0.001-0h-0.915v1.696zM25.694 20.957c-1.26 0.551-2.287-6.17-0.737-5.761 1.115 0.627 1.855 1.803 1.855 3.152 0 1.026-0.429 1.952-1.116 2.608l-0.001 0.001zM24.353 25.243c-1.482 2.025-3.488 2.104-4.236 1.54-0.782-0.726-0.185-2.981 0.887-4.217v-0c1.226-1.364 2.537-2.254 3.45-1.558 0.37 0.579 0.589 1.285 0.589 2.042 0 0.821-0.258 1.582-0.698 2.206l0.008-0.012zM19.536 22.74c-0.081 1.764-1.531 3.164-3.308 3.164-0.048 0-0.096-0.001-0.143-0.003l0.007 0c-0.050 0.003-0.108 0.004-0.167 0.004-1.767 0-3.212-1.381-3.314-3.123l-0-0.009v-0.033c0.081-1.764 1.531-3.164 3.308-3.164 0.048 0 0.096 0.001 0.143 0.003l-0.007-0c0.050-0.003 0.108-0.004 0.167-0.004 1.767 0 3.212 1.381 3.313 3.123l0 0.009c0 0.011 0 0.022 0 0.033zM16.089 30.060c-1.72 0.073-3.406-1.388-3.384-1.894-0.026-0.742 2.094-1.322 3.477-1.288 1.391-0.060 3.258 0.441 3.261 1.106 0.023 0.646-1.693 2.104-3.354 2.076zM10.097 19.778c-0.79-0.613-1.293-1.562-1.293-2.629 0-0.781 0.27-1.498 0.721-2.065l-0.005 0.007c0.61-1.044 1.725-1.735 3.002-1.735 0.591 0 1.148 0.148 1.635 0.409l-0.019-0.009c0.79 0.613 1.293 1.562 1.293 2.629 0 0.781-0.27 1.498-0.721 2.065l0.005-0.007c-0.61 1.044-1.725 1.735-3.002 1.735-0.591 0-1.148-0.148-1.635-0.409l0.019 0.009zM11.649 26.787c-0.308 0.102-0.664 0.161-1.032 0.161-1.291 0-2.413-0.719-2.989-1.779l-0.009-0.018c-0.91-1.602-0.793-3.233-0.154-3.712 0.956-0.573 2.432 0.201 3.569 1.5 0.99 1.175 1.442 3.24 0.615 3.848zM6.318 21.040c-0.689-0.658-1.118-1.583-1.118-2.609 0-1.348 0.741-2.524 1.837-3.142l0.018-0.009c1.549-0.409 0.523 6.312-0.737 5.76zM12.375 10.098c0.985 0.163-4.72 5.069-4.808 3.975-0.007-0.086-0.011-0.186-0.011-0.287 0-2.11 1.711-3.821 3.821-3.821 0.355 0 0.698 0.048 1.024 0.139l-0.027-0.006zM8.854 8.681c0.175-0.010 0.325-0.103 0.414-0.24l0.001-0.002c-0.541-0.122-1.020-0.324-1.45-0.595l0.019 0.011c0.041 0.007 0.089 0.012 0.138 0.012 0.166 0 0.321-0.050 0.45-0.135l-0.003 0.002c-0.524-0.225-0.975-0.505-1.378-0.841l0.009 0.007c0.244-0.006 0.508-0.003 0.584-0.091-0.419-0.253-0.78-0.544-1.098-0.877l-0.002-0.002c0.342 0.041 0.486 0.006 0.569-0.053-0.365-0.288-0.675-0.623-0.929-1l-0.010-0.016c0.093 0.049 0.203 0.077 0.32 0.077 0.122 0 0.237-0.031 0.338-0.087l-0.004 0.002c-0.111-0.247-0.587-0.393-0.862-0.97 0.267 0.025 0.551 0.057 0.608 0-0.111-0.411-0.299-0.769-0.55-1.073l0.004 0.005c0.113 0.005 0.246 0.007 0.379 0.007 0.359 0 0.715-0.019 1.064-0.057l-0.043 0.004-0.354-0.356c0.153-0.029 0.328-0.046 0.507-0.046 0.374 0 0.731 0.072 1.058 0.204l-0.019-0.007c0.186-0.145-0.003-0.328-0.231-0.515 0.481 0.061 0.918 0.173 1.331 0.331l-0.039-0.013c0.207-0.184-0.134-0.369-0.3-0.553 0.512 0.079 0.969 0.263 1.366 0.53l-0.012-0.008c0.224-0.212 0.013-0.391-0.138-0.576 0.443 0.169 0.822 0.413 1.139 0.721l-0.001-0.001c0.102-0.135 0.258-0.234 0.069-0.561 0.361 0.2 0.663 0.461 0.902 0.773l0.005 0.007c0.243-0.152 0.145-0.361 0.146-0.553 0.355 0.314 0.677 0.646 0.973 1.001l0.012 0.015c0.094-0.124 0.156-0.277 0.169-0.444l0-0.003c0.974 0.931 2.35 3.275 0.354 4.205-1.699-1.337-3.685-2.406-5.84-3.098l-0.134-0.037c2.115 0.955 3.929 2.186 5.497 3.673l-0.009-0.008c-0.472 1.861-2.931 1.946-3.83 1.894 0.173-0.058 0.312-0.18 0.39-0.337l0.002-0.004c-0.226-0.158-1.026-0.017-1.584-0.326zM16.058 9.432c1.416-0.015 3.169 1.040 3.162 2.035-0.006 0.878-1.231 1.589-3.151 1.575-1.88-0.022-3.146-0.893-3.141-1.744 0.004-0.7 1.535-1.907 3.13-1.866zM18.073 2.719c0.013 0.17 0.075 0.323 0.171 0.449l-0.002-0.002c0.307-0.369 0.629-0.701 0.975-1.007l0.010-0.008c0.001 0.192-0.097 0.401 0.146 0.553 0.245-0.319 0.547-0.581 0.893-0.773l0.015-0.008c-0.189 0.326-0.032 0.425 0.069 0.561 0.317-0.306 0.696-0.551 1.116-0.712l0.023-0.008c-0.151 0.184-0.363 0.364-0.138 0.576 0.385-0.26 0.842-0.444 1.335-0.52l0.019-0.002c-0.165 0.184-0.507 0.369-0.3 0.553 0.374-0.145 0.811-0.257 1.264-0.315l0.028-0.003c-0.227 0.187-0.417 0.37-0.231 0.515 0.308-0.125 0.665-0.197 1.039-0.197 0.179 0 0.355 0.017 0.525 0.049l-0.018-0.003-0.354 0.356c0.306 0.034 0.661 0.053 1.020 0.053 0.134 0 0.266-0.003 0.399-0.008l-0.019 0.001c-0.247 0.3-0.435 0.657-0.541 1.048l-0.005 0.020c0.057 0.057 0.34 0.025 0.608 0-0.274 0.577-0.75 0.723-0.861 0.97 0.096 0.053 0.212 0.085 0.334 0.085 0.117 0 0.227-0.029 0.324-0.079l-0.004 0.002c-0.263 0.392-0.574 0.727-0.929 1.008l-0.009 0.007c0.083 0.059 0.227 0.094 0.569 0.053-0.32 0.335-0.681 0.625-1.077 0.866l-0.023 0.013c0.077 0.088 0.34 0.085 0.585 0.091-0.394 0.328-0.845 0.608-1.333 0.819l-0.036 0.014c0.126 0.083 0.281 0.133 0.447 0.133 0.049 0 0.096-0.004 0.142-0.012l-0.005 0.001c-0.411 0.26-0.889 0.461-1.4 0.577l-0.031 0.006c0.090 0.139 0.241 0.233 0.414 0.242l0.001 0c-0.559 0.309-1.359 0.168-1.584 0.326 0.081 0.161 0.219 0.283 0.388 0.339l0.005 0.001c-0.899 0.052-3.359-0.033-3.83-1.894 1.56-1.48 3.375-2.711 5.368-3.617l0.123-0.050c-2.289 0.729-4.276 1.798-6.016 3.167l0.040-0.031c-1.997-0.929-0.62-3.274 0.354-4.204zM22.050 19.611c-0.468 0.252-1.025 0.4-1.616 0.4-1.277 0-2.392-0.691-2.993-1.718l-0.009-0.016c-0.446-0.56-0.715-1.278-0.715-2.058 0-1.067 0.503-2.016 1.286-2.623l0.008-0.006c0.468-0.252 1.025-0.4 1.616-0.4 1.277 0 2.392 0.69 2.993 1.718l0.009 0.016c0.446 0.56 0.715 1.278 0.715 2.058 0 1.067-0.503 2.016-1.286 2.623l-0.008 0.006zM24.569 14.156c-0.088 1.095-5.793-3.812-4.808-3.975 0.299-0.084 0.643-0.133 0.998-0.133 2.11 0 3.821 1.711 3.821 3.821 0 0.101-0.004 0.201-0.012 0.3l0.001-0.013zM25.867 14.621l-0.216-0.378c0.009-0.111 0.014-0.239 0.014-0.37 0-1.891-1.107-3.524-2.708-4.285l-0.029-0.012c0.445-0.117 0.904-0.214 1.030-0.773 0.765-0.196 0.924-0.55 1.001-0.924 0.2-0.133 0.869-0.507 0.799-1.151 0.302-0.165 0.503-0.48 0.503-0.842 0-0.078-0.009-0.153-0.027-0.225l0.001 0.007c0.403-0.439 0.509-0.802 0.338-1.137 0.18-0.157 0.293-0.387 0.293-0.643 0-0.226-0.088-0.431-0.231-0.584l0 0c0.362-0.657 0.043-1.36-0.969-1.243-0.402-0.592-1.28-0.457-1.416-0.455-0.152-0.19-0.352-0.353-0.969-0.274-0.201-0.165-0.46-0.265-0.743-0.265-0.207 0-0.401 0.054-0.57 0.147l0.006-0.003c-0.547-0.425-0.909-0.084-1.323 0.044-0.662-0.213-0.814 0.079-1.139 0.198-0.722-0.15-0.942 0.177-1.288 0.523l-0.403-0.008c-0.884 0.609-1.533 1.505-1.815 2.551l-0.007 0.032c-0.29-1.077-0.938-1.973-1.806-2.572l-0.015-0.010-0.403 0.008c-0.347-0.346-0.566-0.673-1.289-0.523-0.325-0.119-0.476-0.411-1.139-0.198-0.236-0.122-0.511-0.211-0.802-0.25l-0.013-0.001 0.001 0c-0.196 0.012-0.371 0.089-0.509 0.208l0.001-0.001c-0.163-0.091-0.357-0.144-0.564-0.144-0.283 0-0.542 0.1-0.745 0.267l0.002-0.002c-0.617-0.079-0.817 0.084-0.969 0.274-0.135-0.003-1.013-0.137-1.416 0.454-1.012-0.118-1.332 0.586-0.969 1.243-0.143 0.152-0.231 0.358-0.231 0.583 0 0.256 0.113 0.486 0.292 0.643l0.001 0.001c-0.171 0.335-0.065 0.697 0.338 1.137-0.016 0.066-0.025 0.141-0.025 0.218 0 0.362 0.201 0.677 0.498 0.84l0.005 0.003c-0.070 0.644 0.599 1.018 0.799 1.151 0.077 0.375 0.237 0.729 1.001 0.924 0.126 0.559 0.585 0.655 1.030 0.773-1.63 0.774-2.737 2.406-2.737 4.297 0 0.13 0.005 0.259 0.016 0.386l-0.001-0.017-0.215 0.378c-1.237 0.829-2.040 2.221-2.040 3.801 0 1.195 0.46 2.283 1.212 3.096l-0.003-0.003c0.178 0.802 0.4 1.495 0.677 2.16l-0.031-0.084c0.266 1.852 1.501 3.363 3.166 4.019l0.034 0.012c0.875 0.702 1.888 1.281 2.985 1.687l0.075 0.024c0.936 1.021 2.274 1.659 3.762 1.663h0.001c0.019 0 0.038 0 0.057 0 1.488-0.004 2.826-0.642 3.759-1.659l0.003-0.004c1.172-0.431 2.185-1.010 3.082-1.728l-0.021 0.017c1.699-0.668 2.934-2.179 3.197-4.003l0.003-0.027c0.246-0.581 0.468-1.274 0.63-1.99l0.016-0.085c0.75-0.81 1.209-1.898 1.209-3.093 0-1.58-0.803-2.972-2.024-3.79l-0.016-0.010z"></path>
</svg>